<svg width="18" height="23" viewBox="0 0 18 23" fill="none" xmlns="http://www.w3.org/2000/svg">
<path d="M16.8494 0H0.988517C0.726947 0.0024116 0.476642 0.132328 0.291679 0.361682C0.106716 0.591035 0.00194484 0.901413 0 1.22576V20.8932C0.00194484 21.2175 0.106716 21.5279 0.291679 21.7573C0.476642 21.9866 0.726947 22.1165 0.988517 22.119H9.52841V13.5663H7.20949V10.2208H9.52841V7.76007C9.52841 4.90304 10.9331 3.34549 12.9994 3.34549C13.6906 3.34549 14.3818 3.34549 15.073 3.47452V6.45136H13.6534C12.5311 6.45136 12.3156 7.11493 12.3156 8.08264V10.2116H14.9913L14.6419 13.5571H12.3156V22.119H16.8494C17.111 22.1165 17.3613 21.9866 17.5462 21.7573C17.7312 21.5279 17.836 21.2175 17.8379 20.8932V1.22576C17.836 0.901413 17.7312 0.591035 17.5462 0.361682C17.3613 0.132328 17.111 0.0024116 16.8494 0V0Z" fill="#C2A046"/>
</svg>
