<svg width="19" height="24" viewBox="0 0 19 24" fill="none" xmlns="http://www.w3.org/2000/svg">
<path d="M7.73528 9.07015L11.6775 11.9549L7.73528 14.8396V9.07015ZM18.5514 2.55948V21.329C18.5514 22.742 17.6611 23.8885 16.5638 23.8885H1.98765C0.890303 23.8885 0 22.742 0 21.329V2.55948C0 1.14643 0.890303 0 1.98765 0H16.5638C17.6611 0 18.5514 1.14643 18.5514 2.55948ZM16.8122 11.9602C16.8122 11.9602 16.8122 8.78221 16.4975 7.25719C16.3236 6.4147 15.8143 5.7535 15.1641 5.52954C13.9922 5.11896 9.27571 5.11896 9.27571 5.11896C9.27571 5.11896 4.55918 5.11896 3.38729 5.52954C2.73716 5.7535 2.22783 6.4147 2.05391 7.25719C1.7392 8.77688 1.7392 11.9602 1.7392 11.9602C1.7392 11.9602 1.7392 15.1383 2.05391 16.6633C2.22783 17.5058 2.73716 18.1403 3.38729 18.3643C4.55918 18.7695 9.27571 18.7695 9.27571 18.7695C9.27571 18.7695 13.9922 18.7695 15.1641 18.3589C15.8143 18.135 16.3236 17.5004 16.4975 16.6579C16.8122 15.1383 16.8122 11.9602 16.8122 11.9602V11.9602Z" fill="#C2A046"/>
</svg>
