<svg width="18" height="23" viewBox="0 0 18 23" fill="none" xmlns="http://www.w3.org/2000/svg">
<path d="M17.8379 2.36989V19.7491C17.8379 21.0574 16.9818 22.119 15.9267 22.119H6.14771C6.53791 21.3092 7.0396 20.1441 7.23869 19.1912C7.35814 18.6234 7.84788 16.3078 7.84788 16.3078C8.16642 17.0632 9.09813 17.7001 10.0896 17.7001C13.04 17.7001 15.1622 14.3378 15.1622 10.1609C15.1622 6.15677 12.5264 3.15985 9.13396 3.15985C4.91339 3.15985 2.67569 6.67025 2.67569 10.4966C2.67569 12.274 3.44017 14.4859 4.65856 15.192C4.8457 15.3006 4.94126 15.2512 4.98506 15.029C5.01691 14.8612 5.18414 14.0367 5.25581 13.6565C5.2797 13.5331 5.26776 13.4294 5.18812 13.3109C4.78597 12.7036 4.45948 11.5878 4.45948 10.546C4.45948 7.87 6.09196 5.28288 8.87515 5.28288C11.2761 5.28288 12.9604 7.31209 12.9604 10.2152C12.9604 13.4936 11.6265 15.7647 9.8865 15.7647C8.92692 15.7647 8.21021 14.7822 8.43717 13.5725C8.71191 12.1309 9.24545 10.5756 9.24545 9.53386C9.24545 6.91711 6.23929 7.27753 6.23929 10.7682C6.23929 11.8396 6.52995 12.5703 6.52995 12.5703C5.2797 19.127 5.09256 19.2109 5.35137 22.0795L5.43897 22.119H1.9112C0.85606 22.119 0 21.0574 0 19.7491V2.36989C0 1.06151 0.85606 0 1.9112 0H15.9267C16.9818 0 17.8379 1.06151 17.8379 2.36989Z" fill="#C2A046"/>
</svg>
