<svg width="83" height="74" viewBox="0 0 83 74" fill="none" xmlns="http://www.w3.org/2000/svg">
<path d="M8.67261 73.6992H73.9326C80.606 73.6992 84.7659 66.4625 81.4293 60.6992L48.7993 4.3225C45.4626 -1.44083 37.1426 -1.44083 33.8059 4.3225L1.17594 60.6992C-2.16072 66.4625 1.99927 73.6992 8.67261 73.6992V73.6992ZM41.3026 43.3658C38.9193 43.3658 36.9693 41.4158 36.9693 39.0325V30.3658C36.9693 27.9825 38.9193 26.0325 41.3026 26.0325C43.6859 26.0325 45.6359 27.9825 45.6359 30.3658V39.0325C45.6359 41.4158 43.6859 43.3658 41.3026 43.3658ZM45.6359 60.6992H36.9693V52.0325H45.6359V60.6992Z" fill="#C2A046"/>
</svg>
