<svg width="18" height="23" viewBox="0 0 18 23" fill="none" xmlns="http://www.w3.org/2000/svg">
<path d="M8.91895 8.42594C8.49893 8.42614 8.08839 8.58076 7.73924 8.87025C7.39008 9.15975 7.11799 9.57112 6.95736 10.0524C6.79674 10.5336 6.75479 11.0631 6.83683 11.5739C6.91887 12.0847 7.12121 12.5538 7.41826 12.922C7.71531 13.2902 8.09374 13.541 8.5057 13.6425C8.91766 13.744 9.34465 13.6918 9.73269 13.4925C10.1207 13.2931 10.4524 12.9556 10.6857 12.5225C10.919 12.0894 11.0436 11.5803 11.0436 11.0595C11.0432 10.361 10.8191 9.69132 10.4208 9.19752C10.0224 8.70372 9.48224 8.4262 8.91895 8.42594V8.42594ZM13.8845 6.40166C13.7764 6.0619 13.6131 5.75331 13.4048 5.49503C13.1965 5.23676 12.9477 5.03431 12.6737 4.90024C11.8375 4.49094 9.84668 4.58277 8.91895 4.58277C7.99122 4.58277 6.00238 4.48748 5.16384 4.90024C4.88983 5.03431 4.64097 5.23676 4.43268 5.49503C4.22439 5.75331 4.06113 6.0619 3.95301 6.40166C3.62332 7.43849 3.69699 9.90959 3.69699 11.059C3.69699 12.2084 3.62332 14.6765 3.9546 15.7168C4.06272 16.0566 4.22599 16.3652 4.43427 16.6234C4.64256 16.8817 4.89143 17.0842 5.16543 17.2182C6.00158 17.6275 7.99242 17.5357 8.92055 17.5357C9.84867 17.5357 11.8367 17.631 12.6753 17.2182C12.9493 17.0842 13.1981 16.8817 13.4064 16.6234C13.6147 16.3652 13.778 16.0566 13.8861 15.7168C14.2186 14.68 14.1421 12.2089 14.1421 11.0595C14.1421 9.91008 14.2186 7.44244 13.8861 6.40215L13.8845 6.40166ZM8.91895 15.108C8.2732 15.108 7.64195 14.8706 7.10503 14.4257C6.56811 13.9809 6.14963 13.3486 5.90251 12.6088C5.65539 11.869 5.59074 11.055 5.71671 10.2696C5.84269 9.4843 6.15365 8.76292 6.61027 8.19672C7.06688 7.63051 7.64865 7.24493 8.28199 7.08871C8.91533 6.9325 9.57181 7.01267 10.1684 7.3191C10.765 7.62552 11.2749 8.14444 11.6337 8.81022C11.9924 9.476 12.1839 10.2588 12.1839 11.0595C12.1845 11.5913 12.1004 12.1181 11.9365 12.6096C11.7726 13.1011 11.5321 13.5476 11.2288 13.9237C10.9255 14.2998 10.5654 14.598 10.169 14.8012C9.77266 15.0044 9.34786 15.1087 8.91895 15.108V15.108ZM12.3185 7.78607C12.1678 7.78617 12.0204 7.73083 11.895 7.62705C11.7696 7.52327 11.6719 7.37572 11.6141 7.20305C11.5564 7.03039 11.5413 6.84037 11.5706 6.65702C11.6 6.47368 11.6725 6.30525 11.7791 6.17304C11.8857 6.04083 12.0214 5.95078 12.1693 5.91428C12.3171 5.87778 12.4704 5.89646 12.6097 5.96797C12.7489 6.03948 12.868 6.1606 12.9517 6.31602C13.0355 6.47143 13.0802 6.65415 13.0802 6.84108C13.0806 6.96521 13.0613 7.08822 13.0233 7.20305C12.9853 7.31789 12.9293 7.42229 12.8587 7.51027C12.7881 7.59825 12.7042 7.66808 12.6117 7.71574C12.5193 7.76341 12.4202 7.78798 12.3201 7.78805L12.3185 7.78607ZM15.9267 0H1.9112C1.40432 0 0.918199 0.249684 0.559779 0.694124C0.201358 1.13856 0 1.74135 0 2.36989L0 19.7491C0 20.3776 0.201358 20.9804 0.559779 21.4248C0.918199 21.8693 1.40432 22.119 1.9112 22.119H15.9267C16.4336 22.119 16.9197 21.8693 17.2781 21.4248C17.6365 20.9804 17.8379 20.3776 17.8379 19.7491V2.36989C17.8379 1.74135 17.6365 1.13856 17.2781 0.694124C16.9197 0.249684 16.4336 0 15.9267 0V0ZM15.245 14.3181C15.1937 15.5835 14.9607 16.7048 14.2158 17.626C13.4708 18.5473 12.5674 18.8421 11.5481 18.9023C10.4965 18.9759 7.3438 18.9759 6.29224 18.9023C5.27174 18.8386 4.37069 18.5493 3.62452 17.626C2.87835 16.7028 2.64383 15.581 2.59526 14.3181C2.53593 13.0137 2.53593 9.10383 2.59526 7.80088C2.64662 6.53546 2.87676 5.41421 3.62452 4.49291C4.37228 3.57162 5.27572 3.28032 6.29224 3.22009C7.3438 3.14652 10.4965 3.14652 11.5481 3.22009C12.5686 3.28378 13.4724 3.5731 14.2158 4.49637C14.9592 5.41964 15.1965 6.54139 15.245 7.80681C15.3044 9.1063 15.3044 13.0127 15.245 14.3181Z" fill="#C2A046"/>
</svg>
